<?xml version="1.0" encoding="UTF-8"?>
<svg id="_Слой_1" data-name="Слой 1" xmlns="http://www.w3.org/2000/svg" viewBox="0 0 129 122.29">
  <defs>
    <style>
      .cls-1 {
        fill: #daec5e;
      }

      .cls-1, .cls-2, .cls-3, .cls-4, .cls-5, .cls-6 {
        stroke-width: 0px;
      }

      .cls-2 {
        fill: #fd4d4f;
      }

      .cls-3 {
        fill: #02dad8;
      }

      .cls-4 {
        fill: #dd194c;
      }

      .cls-5 {
        fill: #400061;
      }

      .cls-6 {
        fill: #f32e4d;
      }
    </style>
  </defs>
  <path class="cls-6" d="m124.17,61.58c0,4.27-.43,8.43-1.26,12.45-.83,4.02-2.04,7.9-3.61,11.59-.35,1.26-.9,2.48-1.36,3.65s-.84,2.3-.84,3.39c-2.74,3.26-7.65,1.08-9.28,3.8-.54.54,2.72,1.09,3.15,2.17-1.41.4-2.79.74-3.69,1.1-2.18,1.46-4.72,1.78-7.43,2.42-2.7.12-5.57.65-8.4.24-2.83.06-5.61.29-8.15.61,3.13.3,6.3-.27,9.49.11,3.18.15,6.39.12,9.59.77,3.2.32,6.4.2,9.59.88,3.18-.1,6.35.55,9.49.42-1.63.12-3.41.08-5.16,0-1.75.37-3.49.34-5.04-.02-.15.17.39.57.25,1.03,3.1,1.71,1.1,2.4-.99,2.78-2.09.42-4.24.26-6.35.92-1.98.13-3.97.26-5.97.54-3.02.36-6.05.18-9.07.55-3.02-.04-6.05.27-9.07.2,3.27-.21,6.54.05,9.81,0,3.27.17,6.54-.2,9.81,0-3.81.39-7.6.05-11.36,0-3.76-.04-7.5.15-11.24,0-3.74.01-7.47.21-11.21.02-3.74,0-7.49.14-11.26.05-1.73-.12-3.52-.27-5.3.34-1.78.35-3.57.47-5.34.51-1.78.21-3.55.82-5.32.71,3.03.17,6.01-.03,8.98.55,2.96.36,5.91.65,8.86.62,2.95.09,5.89.97,8.87.5,1.78.08,3.57.12,5.38.17,1.85-.16,3.7.16,5.57.43,3.37.19,6.74.37,10.12.44,3.37.01,6.75-.05,10.12.16,3.38.21,6.75.08,10.13,0,3.38.11,6.76-.15,10.13-.08,3.38-.21,6.76.08,10.14-.05-2.18-.03-3.81.12-5.99.54,1.09,0,1.63-.23,2.72.54-3.45.97-6.96.9-10.5,1.49-3.54.53-7.11,1.03-10.67,1.31-3.56.54-7.11.96-10.63,1.33-1.55.26-2.89.05-4.16.42-1.27.22-2.54.19-3.81.39-2.73.4-5.46.98-8.18.6-2.72-.09-5.43-.29-8.11-.02-2.69-.15-5.36,0-8-.19-1.99.09-4.01-.2-6.01-.22-2.84-.38-5.76-.04-8.65-.17-2.89.32-5.75-.16-8.48-.02,2.91-.45,5.81-1,8.72-1.17,2.91-.16,5.81-.44,8.72-.57,2.91-.34,5.81-.73,8.72-.44-.54-.3-.54.79-.54.54,2.72-.68,5.45-.14,8.17-.54,2.72-.02,5.45-.51,8.17-.54,2.72.01,5.45-.42,8.17-.54-1.36.49-2.72.49-4.09,0-1.36.1-2.72.1-4.09,0,.54-.39,1.63.2,2.18-.54-1.63.06-3.27-.4-4.9-.48-1.63.09-3.27-.69-4.9-.07,2.18-.17,4.36.03,6.54,0-3.27.31-6.51.54-9.73.45-3.22.44-6.43.45-9.65-.11-3.22-.78-6.45-.21-9.7-.4-3.26.1-6.54-.44-9.88-.44-1.25.27-2.31-.77-3.46-.4-1.15-.07-2.4-.51-4.04-.36-1.24-.14-2.52-.67-3.96-.49-1.48.08-3.06-.5-4.62-.44,1.09-.33,2.14.76,3.2.55-.75-1.55-2.11-.87-3.5-1.08-1.39.24-2.81-.05-3.74-.96,1.47-.43,3.04-1.4,4.63-1.48,2.77-1.11,5.58,0,8.41-.43,2.83.21,5.68.32,8.55.3,2.86-.04,5.74-.17,8.62-.72-3,.45-6.03.35-9.08.48-3.05-.42-6.11.45-9.18.48-3.07.38-6.13.31-9.18.27-3.05-.24-6.08-.27-9.08-.14,3.27-.07,6.4-.29,9.54-.75,3.13-.45,6.27-1,9.54-.34,0-.16-.54.04-.54,0,1.27.09,2.54-.04,3.81-.27,1.27-.1,2.54-.42,3.81-.25,1.27-.42,2.54,0,3.81-.22,1.91-.2,3.68.08,5.45-.3,1.77-.2,3.54.3,5.45-.04-1.36.08-2.86-.02-4.36,0-1.5.2-3,.01-4.36,0,1.09-.21,2.32.25,3.54.14,1.23-.08,2.45-.13,3.54-.68-1.63.08-3.27.33-4.9,0,2.18-.05,4.9-1.02,7.08-.54-2.18-.37-3.81.93-5.99.54,2.18.27,4.9.15,7.08,0-1.09-.47-1.63-.07-2.72,0,1.09-.8,2.32-.1,3.54-.68,1.23-.24,2.45.17,3.54.14-2.18.24-4.5.43-6.82,0-2.32.11-4.65.06-6.84.01-1.61.09-3.25.37-4.89.2-1.62.37-3.25-.03-4.89.23-1.64-.22-3.29-.84-4.96-.33-1.64.14-3.29-.22-4.94-.57-.44.03-2.07.27-.98-.1,1.09-1.05,2.59-.85,4.22-.75,1.63-.07,3.41.16,5.04-.34-1.63-.57-4.36-1.59-6.47-2.32-2.11-.75-3.61-2-2.79-4.77-1.63-1.04-3.54-1.68-5.45-1.57-1.91.36-3.83-.41-5.48-1.15-1.05-.53-1.57-1.07-1.92-1.61-.87-1.39-1.91-2.82-2.95-4.3-1.25-2.17-2.18-4.5-3.11-6.89-1.45-3.58-2.58-7.32-3.35-11.2s-1.16-7.88-1.16-11.98C1.01,27.57,28.58,0,62.59,0s61.58,27.57,61.58,61.58Z"/>
  <path class="cls-1" d="m83.03,71.94c0,2.82-.57,5.51-1.61,7.96s-2.53,4.65-4.36,6.51c-8.48,7.34-20.47,6.79-28.92,0-1.86-1.86-3.35-4.06-4.39-6.5s-1.61-5.13-1.61-7.96c0-11.29,9.15-20.44,20.44-20.44s20.44,9.15,20.44,20.44Z"/>
  <circle class="cls-4" cx="36.74" cy="35.05" r="6.37"/>
  <circle class="cls-1" cx="22.69" cy="28.91" r="3.29"/>
  <circle class="cls-2" cx="37.63" cy="36.48" r="4.39"/>
  <path class="cls-3" d="m100.45,20.47c.82.26,1.73.55,2.69.9-1.06-1-2.12-1.99-3.18-2.99,4.1,1.15,7.63,3.66,10.99,6.31,1.32.66,2.68,1.39,4.06,2.2-1.28-1.38-2.72-2.6-4.29-3.62,2.26,1.23,4.5,2.49,6.72,3.78,1.46.85,2.27,1.74,3.46,2.93,1.02,1.02,1.98,2.13,2.92,3.24,1.8,1.57,3.54,3.31,5.17,5.23,0,0-1.02-5.66-4.24-11.3-1.38-1.95-3.36-3.46-6.91-4.71,1.13-.21,2.3-.25,3.44-.13-2.72-3.01-6.32-5.42-11.05-6.09,1.07-.15,2.17-.25,3.29-.3-1.02-.35-2.03-.73-3.04-1.1,2.59-.23,5.16.46,7.66,1.21,1.17.11,2.36.28,3.57.54,0,0-3.26-3.23-7.72-5.3-1.61-.32-3.26-.52-4.88-.67.08-.35.53-.43.89-.43.39,0,.77.01,1.16.02-2.89-.84-6.06-.97-9.07.56,2.51-1.89,5.51-3.53,8.92-4.31,0,0-2.2-1.03-5.05-1.4-2.01.09-4.01.44-5.92,1.07.71-.37,1.44-.73,2.17-1.07-3.26.48-6.52,2.45-8.04,7.82-.13.04-.25.09-.37.15-2.74-2.4-5.6-3.17-8.26-3.07.33.15.65.31.95.51-1.85,0-3.7.15-5.52.46-1.59.6-3,1.4-4.11,2.14,1.26-.29,2.52-.57,3.79-.87-.59.19-1.18.38-1.77.57-1.31.57-2.61,1.14-3.92,1.71-.52.43-.81.71-.81.71,3.27-.55,6.5-.46,9.5-.02-.98.14-1.9.37-2.76.68,1.03,0,2.05.05,3.07.17-2.08.21-4.17.62-6.13,1.33-2.6,1.69-4.5,4.07-5.88,6.41.91-.79,1.88-1.51,2.88-2.17-3.78,4.25-4.75,5.36-5.53,9.54,1.53-1.41,3.16-2.65,4.84-3.74.38-.5.76-.99,1.17-1.46,1.15-1.31,2.51-2.44,4.01-3.32-1.07,1.08-2.07,2.23-2.99,3.44.53-.3,1.06-.59,1.6-.87,2.76-2.22,5.7-4.23,9.1-5.1-1.09,1.07-2.34,1.94-3.65,2.72.64-.24,1.28-.46,1.91-.66-1.26.64-2.39,1.34-3.4,2.07.54-.24,1.09-.47,1.66-.65-2.3,1.5-4.46,3.3-6.29,5.36-1.69,2.48-2.57,5.14-2.93,7.79.23-.66.48-1.32.76-1.97-.7,4.06-.65,6.36-.57,9.42.96,5.72,3.36,10.09,3.36,10.09.26-2.57.75-5.05,1.41-7.44.01-.08.02-.16.03-.24.16-1.1.32-2.2.48-3.29.17-1.18.34-2.36.63-3.52.44-1.79,1.16-3.5,1.93-5.19-.36,1.64-.52,3.33-.47,5.02.92-2.07,1.93-4.03,2.98-5.86.16-.41.33-.81.5-1.21,1.26-2.94,2.89-5.79,5.26-7.94-.22.48-.42.97-.61,1.47,1.28-1.67,2.48-3.09,3.5-4.24.06.03.12.06.19.09-.06.17-.13.34-.19.52,0,0,.2-.13.56-.36.68.26,1.42.37,2.19.3.26-.02.52-.08.77-.14,3.51,5.25,6.34,11.4,6.44,18.16.26,18.24-4.64,26.96-12.82,37.31l-2.95,3.71,16.03-.44c5.99-12.53,7.63-16.89,6.39-35.07-.65-9.55-4.38-18.19-9.67-25.38Z"/>
  <path class="cls-5" d="m125.18,86.38h-.21c-.71-6.95-28.37-12.53-62.38-12.53S.91,79.43.21,86.38h-.21c.06.16.13.32.19.48,0,.62.23,1.23.73,1.82,1.06,2.46,4.71,4.62,4.21,6.63,1.21.49,2.37.96,3.48,1.41,1.11.45,2.17.88,3.61,1.27,7.05.07,13.77.57,20.26,2.03,1.62.36,3.25.79,4.89,1.28,7.23,3.33,14.86,2.24,22.56,2.41,1.9,0,3.81-.03,5.72-.08,13.37-.34,26.71-1.83,39.91-4.14,3.86-1.41.62-2.5,1.17-2.5,4.9-2.18,11.44-1.09,15.65-4.83.84-.83,1.57-1.94,2.25-3.45.34-.6.39-1.22.55-2.35Z"/>
  <path class="cls-5" d="m30.99,54.01c3.37,1.1,7.16,2.91,10.26,5.88,0,0-1.9-9.19-9.24-10.22,1.87-.27,3.88-.33,5.92.01,0,0-6.54-6.35-12.24-1.34-.08-.03-.15-.06-.23-.09-2.22-7.89-10.49-4-10.49-4,2.12.49,3.99,1.51,5.56,2.69-5.67-2.88-12.22,3.62-12.22,3.62,2.51-.54,4.94-.52,7.15-.22-9.43,1.33-11.69,13.85-11.69,13.85,5.68-6.67,13.48-9.86,17.79-11.19-3.3,4.48-5.47,9.87-6.03,15.81-.39,4.15.04,8.2,1.16,11.97s2.93,7.31,5.06,10.31c4.06,1.94,2.05,3.82,1.64,5.42l5.89-5.59,2.8-7.52c-7.28-4.84-13.28-8.7-12.4-18.02.39-4.2,1.82-8.04,4.01-11.32.15.04.31.07.48.09.48.04.94-.03,1.36-.19.23.14.35.22.35.22-.04-.11-.08-.21-.12-.32.04-.02.08-.04.12-.06,3.09,3.46,8.82,11,9.75,20.22,0,0,7.6-13.78-4.62-20Z"/>
  <path class="cls-6" d="m119.43,91.25c-1.15.41-2.4.68-3.62.93s-2.42.51-3.51.96c-5.52,3.31-11.72,3.44-17.83,3.64-1.53.05-3.05.11-4.55.22-1.71,0-2.8,0-4.43.55,2.45.27,4.77.41,7.08.54s4.63.27,7.08.54c-1.23.41-2.45.62-3.68,1.02-1.98.6-3.78.78-5.57.74-1.79.18-3.56-.21-5.47-.13,1.63.8,3.81.25,5.21.47,1.74.17,3.51.13,5.15.07-1.91.46-3.81.02-5.72.23-4.11.59-8.23.15-12.36.58-4.13-.11-8.28.23-12.43-.37-4.15.32-8.31-1.11-12.47-.52-4.16-.27-8.33-.41-12.5.14-1.85.32-3.69.27-5.53.49,2.16-.83,4.34-1.31,5.97-1.64-2.45-.53-5.04-.87-7.62-1.71-2.58-.06-5.16-.6-7.59-.5-1.18.04-2.35-.29-3.53-.27-1.18-.11-2.37-.25-3.6-.43-1.59-.2-3.17-.48-4.72-.92s-3.08-1.05-4.55-1.9c-1.13-.46-2.29-.93-3.5-1.41.37-1.48-1.54-3.05-2.98-4.77-.04.52-.06,1.03-.06,1.55,0,1.66.19,3.28.6,4.9.52,1.36,1.86,1.77,3.03,2.18,1.31.41,2.43.81,4.39,2.1,3.03,1.02,1.28,1.44-1.63,2.31-.39,1.04-.93,1.22-.93,1.04.54,1.22,1.77,2.2,3.07,2.45,1.29.62,2.66,1.01,3.47,2.45-1.91.19-3.81.81-5.72.95-1.91-.23-3.81-.17-5.72.14,0,.06,0-.69,0-.54,2.18.56,4.36.89,6.57.95,2.21.27,4.46.35,6.77.13,1.58.06,3.24.14,4.91.24,1.67.2,3.34-.03,5,.24,1.67.08,3.33.52,4.98.28,1.68.68,3.21.65,4.7.56,1.4.41,3.03.16,4.67.32-3.63.06-7.27.37-10.9.32-3.63.05-7.27.42-10.9.44-3.63.35-7.27.81-10.9,1.41,1.36-.07,2.72.51,4.09.32,1.37.31,2.73.02,4.1.17,1.36.42,2.71.16,4.07.05,1.36-.1,2.72-.2,4.09,0-.54.22-1.63-.11-2.18,0v1.63c2.18.79,4.36-.22,6.39,1.1-.67.58-2.57-.5-3.66-.56,1.23.7,2.49.54,3.67.42.89.28,2.65.03,4.39.49,1.7.09,3.36.41,5.01.64,1.65-.41,3.29.66,4.92.09-2.45.1-4.77-.62-7.06-.53-2.3-.52-4.57-.17-6.94-.44-1.04-.26-2.21-.73-3.44-.66,1.54-.28,2.99.15,4.2.78,3.17.05,6.34,1.08,9.49,1.13,3.16-.04,6.3.94,9.45.23,3.14.17,6.28.38,9.42.17,3.14.32,6.27-.18,9.4.96-3.54-.08-7.08.03-10.63.5-3.54.18-7.08-.09-10.63.25-3.54.2-7.08-.39-10.63.55-3.54.26-7.08.66-10.63,1.42,3.09.33,6.12.4,9.13.76,3.02-.03,6.02,0,9.07.24,3.04-.03,6.13.09,9.3-.08,1.87.32,3.74.29,5.61-.07,2.49,0,4.98.11,7.45-.12,2.48-.2,4.95-.18,7.41-.1,2.46.19,4.91-.17,7.34-.03,1.58.5,3.18-.1,4.78-.02,3.21.1,6.42-.05,9.64-.03,3.21-.08,6.42.33,9.61,0,3.19-.08,6.36.06,9.49,0-1.63.07-3.81-.15-5.64-.8.19-.43.19-1.14-.9-.83,2.18-1.16,4.5-1.75,6.81-1.63,2.32-.3,4.63-.76,6.81-1.63-1.36.22-2.59-.32-3.81-.48-1.23-.41-2.45-.19-3.81-.07,1.36.4,2.72-.24,4.02.07,1.29-.17,2.52-.24,3.61-1.16-2.72.03-5.39-.23-8.03,0-2.64.33-5.27.04-7.91,0-2.64-.06-5.31,0-8.03,0,1.09-.12,2.18.19,3.27,0-1.91.08-3.95.37-5.96-.05-2.01-.1-3.99-.31-5.78-.38-1.75-.29-3.38.32-4.98-.24-2.67-.07-5.34-.19-8.01-.5-2.67-.28-5.34-.21-8.03-.67-2.69-.21-5.39-.54-8.11-.89,2.04-.39,4.1.16,6.14-.36,3.37.17,6.72.45,10.05-.27,3.34-.12,6.66-.39,9.99-.37,3.33-.25,6.66-.21,10.02-.23,3.35-.21,6.73.06,10.13.14,0-.03-.54-.3-.54,0,.54-.02,1.63.05,2.18,0-1.09-.07-1.63-.35-2.73-1.09,1.09-.12,2.18-.05,3.27,0-1.63.14-3.27.27-4.9,0,1.63-.24,3.29-.65,4.95-.82,1.66-.17,3.33-.54,5.01-.82,1.68-.27,3.27-.56,4.51-.85,1.49-.5,2.65-.83,3.77-1.5,1.12-.65,2.22-1.33,3.58-.92-2.54.58-5.15-.52-7.77-.46-2.62-.02-5.27,0-7.89-.34-2.62-.33-5.23-1.15-7.77-1.92,2.72.3,5.39-.53,8.03-.45,2.64-.06,5.25-.43,7.86-.95,2.62-.37,5.24-.66,7.9-.87,1.29-.25,2.62-.54,3.93-.91-1.58-.62-3.78-.97-6.01-1.19-2.23-.22-4.48-.32-6.73-.39-1.5-.05-3-.08-4.49-.12-1.49-.04-2.98-.09-4.46-.18-1.48-.09-2.95-.21-4.4-.39,6.54-.54,12.53-1.09,19-2.34.98-2,1.17-3.63,1.17-5.29,0-.03,0-.06,0-.09-.88.92-1.88,1.53-3.11,1.96Z"/>
</svg>
